<svg xmlns="http://www.w3.org/2000/svg" id="b" viewBox="0 0 37.79 37.79"><g id="c"><g id="d"><path id="e" fill="#ffffff" d="M35.9 3.78h-3.78v-.94c0-1.57-1.27-2.84-2.84-2.84s-2.83 1.27-2.84 2.83v.95H11.33v-.94C11.33 1.27 10.06 0 8.5 0S5.67 1.27 5.67 2.83v.94H1.89C.85 3.77 0 4.62 0 5.66v30.23c0 1.04.85 1.89 1.89 1.89H35.9c1.04 0 1.89-.85 1.89-1.89V5.67c0-1.04-.84-1.89-1.89-1.89Zm-7.56-.94c-.02-.52.39-.96.91-.98s.96.39.98.91v1h-1.89v-.94Zm-20.78 0c-.02-.52.39-.96.91-.98.52-.02.96.39.98.91v1H7.56v-.94ZM8.98 35.9H1.89v-6.3h7.08v6.3h.01Zm0-8.19H1.89v-6.3h7.08v6.3h.01Zm0-8.19H1.89v-6.3h7.08v6.3h.01Zm8.97 16.37h-7.09V29.6h7.08v6.29h.01Zm0-8.19h-7.09v-6.3h7.08v6.3h.01Zm0-8.19h-7.09v-6.3h7.08v6.3h.01Zm8.97 16.37h-7.09v-6.29h7.08v6.29h.01Zm0-8.19h-7.09v-6.3h7.08v6.3h.01Zm0-8.19h-7.09v-6.3h7.08v6.3h.01Zm8.97 16.37H28.8v-6.29h7.08v6.29Zm0-8.19H28.8v-6.3h7.08v6.3Zm0-8.19H28.8v-6.3h7.08v6.3Zm0-8.19h-34V5.63H35.9v5.67Z"/></g></g></svg>